<svg width="28" height="27" viewBox="0 0 28 27" fill="none" xmlns="http://www.w3.org/2000/svg">
<path fill-rule="evenodd" clip-rule="evenodd" d="M7.46624 2.16133L5.59802 0.26992C2.40147 2.70295 0.266656 6.47905 0 10.795H2.66979C2.93645 7.15057 4.66803 4.04602 7.46624 2.16133ZM25.3302 10.795H28C27.7334 6.47905 25.7335 2.70295 22.532 0.26992L20.6621 2.16133C23.3319 4.04602 25.0635 7.15057 25.3302 10.795ZM22.6687 11.475C22.6687 7.2889 19.8688 3.91441 16.0024 2.97289V2.023C16.0024 0.94312 15.0642 -4.95911e-05 13.9959 -4.95911e-05C12.9359 -4.95911e-05 11.9976 0.94312 11.9976 2.023V2.97289C8.13114 3.91441 5.33136 7.2889 5.33136 11.475V18.8955L2.66979 21.5985V22.95H25.3302V21.5985L22.6687 18.8955V11.475ZM13.9959 26.9961H14.5308C15.4675 26.8645 16.1323 26.1862 16.399 25.3746C16.5356 25.1046 16.6656 24.7031 16.6656 24.2931H11.3343C11.3343 25.7829 12.5326 26.9961 13.9959 26.9961Z" fill="#323D41"/>
</svg>
